<svg width="40" height="41" viewBox="0 0 40 41" fill="none" xmlns="http://www.w3.org/2000/svg">
<g clip-path="url(#clip0_1_229)">
<path d="M39.2 32.6333H38.4V13.8333C38.4 13.0333 38.1111 12.3222 37.5333 11.7C36.9556 11.0777 36.2222 10.7666 35.3333 10.7666H26.4L25.8667 9.16664H26.6667C26.8444 9.16664 27.0222 9.09997 27.2 8.96664C27.3778 8.8333 27.4667 8.6333 27.4667 8.36664V4.49997C27.4667 4.2333 27.3778 4.0333 27.2 3.89997C27.0222 3.76664 26.8444 3.69997 26.6667 3.69997H25.0667V1.29997C25.0667 1.12219 25 0.966637 24.8667 0.833302C24.7333 0.69997 24.5333 0.633305 24.2667 0.633305H15.7333C15.4667 0.633305 15.2667 0.69997 15.1333 0.833302C15 0.966637 14.9333 1.12219 14.9333 1.29997V3.69997H13.3333C13.1556 3.69997 12.9778 3.76664 12.8 3.89997C12.6222 4.0333 12.5333 4.2333 12.5333 4.49997V8.36664C12.5333 8.6333 12.6222 8.8333 12.8 8.96664C12.9778 9.09997 13.1556 9.16664 13.3333 9.16664H14.1333L13.6 10.7666H4.66667C3.77778 10.7666 3.04444 11.0777 2.46667 11.7C1.88889 12.3222 1.6 13.0333 1.6 13.8333V32.6333H0.8C0.533333 32.6333 0.333333 32.7 0.2 32.8333C0.0666667 32.9666 0 33.1666 0 33.4333V37.3C0 38.1889 0.311111 38.9222 0.933333 39.5C1.55556 40.0777 2.26667 40.3666 3.06667 40.3666H36.9333C37.7333 40.3666 38.4444 40.0777 39.0667 39.5C39.6889 38.9222 40 38.1889 40 37.3V33.4333C40 33.1666 39.9333 32.9666 39.8 32.8333C39.6667 32.7 39.4667 32.6333 39.2 32.6333ZM35.3333 12.2333C35.7778 12.2333 36.1556 12.3889 36.4667 12.7C36.7778 13.0111 36.9333 13.3889 36.9333 13.8333V32.6333H35.3333V14.6333C35.3333 14.4555 35.2444 14.2777 35.0667 14.1C34.8889 13.9222 34.7111 13.8333 34.5333 13.8333H27.4667L26.9333 12.2333H35.3333ZM16.5333 34.2333H23.4667V35.7H16.5333V34.2333ZM6.26667 32.6333V15.4333H11.8667L11.4667 16.7666C11.3778 17.0333 11.4222 17.2555 11.6 17.4333L18.5333 27.1666H13.2C13.0222 26.7222 12.7333 26.3444 12.3333 26.0333C11.9333 25.7222 11.4444 25.5666 10.8667 25.5666C10.2889 25.5666 9.77778 25.7889 9.33333 26.2333C8.88889 26.6777 8.66667 27.2333 8.66667 27.9C8.66667 28.5666 8.88889 29.1222 9.33333 29.5666C9.77778 30.0111 10.2889 30.2333 10.8667 30.2333C11.4444 30.2333 11.9333 30.1 12.3333 29.8333C12.7333 29.5666 13.0222 29.2111 13.2 28.7666H26.8C26.9778 29.2111 27.2667 29.5666 27.6667 29.8333C28.0667 30.1 28.5556 30.2333 29.1333 30.2333C29.7111 30.2333 30.2222 30.0111 30.6667 29.5666C31.1111 29.1222 31.3333 28.5666 31.3333 27.9C31.3333 27.2333 31.1111 26.6777 30.6667 26.2333C30.2222 25.7889 29.7111 25.5666 29.1333 25.5666C28.5556 25.5666 28.0667 25.7222 27.6667 26.0333C27.2667 26.3444 26.9778 26.7222 26.8 27.1666H21.4667L28.4 17.4333C28.5778 17.2555 28.6222 17.0333 28.5333 16.7666L28.1333 15.4333H33.7333V32.6333H6.26667ZM20 17.0333C19.8222 17.0333 19.6444 16.9444 19.4667 16.7666C19.2889 16.5889 19.2 16.3889 19.2 16.1666C19.2 15.9444 19.2889 15.7666 19.4667 15.6333C19.6444 15.5 19.8222 15.4333 20 15.4333C20.1778 15.4333 20.3556 15.5 20.5333 15.6333C20.7111 15.7666 20.8 15.9444 20.8 16.1666C20.8 16.3889 20.7111 16.5889 20.5333 16.7666C20.3556 16.9444 20.1778 17.0333 20 17.0333ZM11.7333 27.9666C11.7333 28.1444 11.6667 28.3222 11.5333 28.5C11.4 28.6777 11.2222 28.7666 11 28.7666C10.7778 28.7666 10.6 28.6777 10.4667 28.5C10.3333 28.3222 10.2667 28.1222 10.2667 27.9C10.2667 27.6777 10.3333 27.5 10.4667 27.3666C10.6 27.2333 10.7778 27.1666 11 27.1666C11.2222 27.1666 11.4 27.2333 11.5333 27.3666C11.6667 27.5 11.7333 27.7 11.7333 27.9666ZM28.2667 27.9666C28.2667 27.7 28.3333 27.5 28.4667 27.3666C28.6 27.2333 28.7778 27.1666 29 27.1666C29.2222 27.1666 29.4 27.2333 29.5333 27.3666C29.6667 27.5 29.7333 27.6777 29.7333 27.9C29.7333 28.1222 29.6667 28.3222 29.5333 28.5C29.4 28.6777 29.2222 28.7666 29 28.7666C28.7778 28.7666 28.6 28.6777 28.4667 28.5C28.3333 28.3222 28.2667 28.1444 28.2667 27.9666ZM16.5333 2.09997H23.4667V3.69997H16.5333V2.09997ZM14.1333 5.29997H25.8667V7.56664H14.1333V5.29997ZM24.1333 9.16664L26.9333 16.9L20.8 25.4333V18.3666C21.2444 18.2777 21.6222 18.0111 21.9333 17.5666C22.2444 17.1222 22.4 16.6333 22.4 16.1C22.4 15.5666 22.1556 15.0555 21.6667 14.5666C21.1778 14.0777 20.6222 13.8333 20 13.8333C19.3778 13.8333 18.8222 14.0777 18.3333 14.5666C17.8444 15.0555 17.6 15.5666 17.6 16.1C17.6 16.6333 17.7556 17.1222 18.0667 17.5666C18.3778 18.0111 18.7556 18.2777 19.2 18.3666V25.4333L13.0667 16.9L15.8667 9.16664H24.1333ZM3.06667 13.8333C3.06667 13.3889 3.22222 13.0111 3.53333 12.7C3.84444 12.3889 4.22222 12.2333 4.66667 12.2333H13.0667L12.5333 13.8333H5.46667C5.28889 13.8333 5.11111 13.9222 4.93333 14.1C4.75556 14.2777 4.66667 14.4555 4.66667 14.6333V32.6333H3.06667V13.8333ZM38.4 37.3C38.4 37.7444 38.2444 38.1222 37.9333 38.4333C37.6222 38.7444 37.2889 38.9 36.9333 38.9H3.06667C2.71111 38.9 2.37778 38.7444 2.06667 38.4333C1.75556 38.1222 1.6 37.7444 1.6 37.3V34.2333H14.9333V36.5C14.9333 36.7666 15 36.9666 15.1333 37.1C15.2667 37.2333 15.4667 37.3 15.7333 37.3H24.2667C24.5333 37.3 24.7333 37.2333 24.8667 37.1C25 36.9666 25.0667 36.7666 25.0667 36.5V34.2333H38.4V37.3Z" fill="white"/>
</g>
<defs>
<clipPath id="clip0_1_229">
<rect width="40.02" height="40" fill="white" transform="matrix(1 0 0 -1 -0.0100098 40.5)"/>
</clipPath>
</defs>
</svg>
