<svg width="41" height="41" viewBox="0 0 41 41" fill="none" xmlns="http://www.w3.org/2000/svg">
<g clip-path="url(#clip0_1_217)">
<path d="M16.7233 28.5C16.6344 28.5 16.5011 28.4555 16.3233 28.3666L12.0567 24.7666C11.8789 24.5889 11.79 24.4111 11.79 24.2333C11.79 24.0555 11.8789 23.8778 12.0567 23.7L16.3233 20.1C16.5011 20.0111 16.6789 19.9666 16.8567 19.9666C17.0344 19.9666 17.1678 20.0333 17.2567 20.1666C17.3455 20.3 17.39 20.4555 17.39 20.6333C17.39 20.8111 17.3455 20.9444 17.2567 21.0333L13.5233 24.2333L17.2567 27.4333C17.3455 27.5222 17.39 27.6555 17.39 27.8333C17.39 28.0111 17.3455 28.1666 17.2567 28.3C17.1678 28.4333 16.99 28.5 16.7233 28.5ZM25.2567 28.5C24.99 28.5 24.8122 28.4333 24.7233 28.3C24.6344 28.1666 24.59 28.0111 24.59 27.8333C24.59 27.6555 24.6344 27.5222 24.7233 27.4333L28.4567 24.2333L24.7233 21.0333C24.6344 20.9444 24.59 20.8111 24.59 20.6333C24.59 20.4555 24.6344 20.3 24.7233 20.1666C24.8122 20.0333 24.9455 19.9666 25.1233 19.9666C25.3011 19.9666 25.4789 20.0111 25.6567 20.1L29.9233 23.7C30.1011 23.8778 30.19 24.0555 30.19 24.2333C30.19 24.4111 30.1011 24.5889 29.9233 24.7666L25.6567 28.3666C25.4789 28.4555 25.3455 28.5 25.2567 28.5ZM19.5233 31.3C19.4344 31.3 19.3455 31.2778 19.2567 31.2333C19.1678 31.1889 19.0567 31.1 18.9233 30.9666C18.79 30.8333 18.7678 30.6778 18.8567 30.5L21.5233 17.8333C21.5233 17.6555 21.6122 17.5222 21.79 17.4333C21.9678 17.3444 22.1455 17.3 22.3233 17.3C22.5011 17.3 22.6344 17.3889 22.7233 17.5666C22.8122 17.7444 22.8122 17.9222 22.7233 18.1L20.0567 30.7666C20.0567 31.1222 19.8789 31.3 19.5233 31.3ZM36.59 38.1H5.38999C4.23443 38.1 3.21221 37.6778 2.32332 36.8333C1.43443 35.9889 0.98999 34.9444 0.98999 33.7V7.29997C0.98999 6.05553 1.43443 5.01109 2.32332 4.16664C3.21221 3.3222 4.23443 2.89997 5.38999 2.89997H36.59C37.7455 2.89997 38.7678 3.3222 39.6567 4.16664C40.5455 5.01109 40.99 6.05553 40.99 7.29997V33.7C40.99 34.9444 40.5455 35.9889 39.6567 36.8333C38.7678 37.6778 37.7455 38.1 36.59 38.1ZM5.38999 4.23331C4.58999 4.23331 3.87888 4.5222 3.25666 5.09998C2.63443 5.67775 2.32332 6.41109 2.32332 7.29997V33.7C2.32332 34.5889 2.63443 35.3222 3.25666 35.9C3.87888 36.4778 4.58999 36.7666 5.38999 36.7666H36.59C37.39 36.7666 38.1011 36.4778 38.7233 35.9C39.3455 35.3222 39.6567 34.5889 39.6567 33.7V7.29997C39.6567 6.41109 39.3455 5.67775 38.7233 5.09998C38.1011 4.5222 37.39 4.23331 36.59 4.23331H5.38999ZM40.3233 13.4333H1.65666C1.47888 13.4333 1.32332 13.3666 1.18999 13.2333C1.05666 13.1 0.98999 12.9444 0.98999 12.7666C0.98999 12.5889 1.05666 12.4333 1.18999 12.3C1.32332 12.1666 1.47888 12.1 1.65666 12.1H40.3233C40.5011 12.1 40.6567 12.1666 40.79 12.3C40.9233 12.4333 40.99 12.5889 40.99 12.7666C40.99 12.9444 40.9233 13.1 40.79 13.2333C40.6567 13.3666 40.5011 13.4333 40.3233 13.4333ZM12.3233 10.2333C11.7011 10.2333 11.19 10.0333 10.79 9.63331C10.39 9.23331 10.19 8.74442 10.19 8.16664C10.19 7.58886 10.39 7.09997 10.79 6.69997C11.19 6.29997 11.6789 6.09998 12.2567 6.09998C12.8344 6.09998 13.3233 6.29997 13.7233 6.69997C14.1233 7.09997 14.3233 7.58886 14.3233 8.16664C14.3233 8.74442 14.1233 9.23331 13.7233 9.63331C13.3233 10.0333 12.8567 10.2333 12.3233 10.2333ZM12.3233 7.43331C12.0567 7.43331 11.8567 7.49997 11.7233 7.63331C11.59 7.76664 11.5233 7.94442 11.5233 8.16664C11.5233 8.38886 11.59 8.56664 11.7233 8.69997C11.8567 8.83331 12.0344 8.89997 12.2567 8.89997C12.4789 8.89997 12.6567 8.83331 12.79 8.69997C12.9233 8.56664 12.99 8.38886 12.99 8.16664C12.99 7.94442 12.9233 7.76664 12.79 7.63331C12.6567 7.49997 12.5011 7.43331 12.3233 7.43331ZM5.78999 10.2333C5.25666 10.2333 4.78999 10.0333 4.38999 9.63331C3.98999 9.23331 3.78999 8.74442 3.78999 8.16664C3.78999 7.58886 3.98999 7.09997 4.38999 6.69997C4.78999 6.29997 5.27888 6.09998 5.85666 6.09998C6.43443 6.09998 6.92332 6.29997 7.32332 6.69997C7.72332 7.09997 7.92332 7.58886 7.92332 8.16664C7.92332 8.74442 7.72332 9.23331 7.32332 9.63331C6.92332 10.0333 6.41221 10.2333 5.78999 10.2333ZM5.78999 7.43331C5.61221 7.43331 5.45666 7.49997 5.32332 7.63331C5.18999 7.76664 5.12332 7.94442 5.12332 8.16664C5.12332 8.38886 5.18999 8.56664 5.32332 8.69997C5.45666 8.83331 5.63443 8.89997 5.85666 8.89997C6.07888 8.89997 6.25666 8.83331 6.38999 8.69997C6.52332 8.56664 6.58999 8.38886 6.58999 8.16664C6.58999 7.94442 6.52332 7.76664 6.38999 7.63331C6.25666 7.49997 6.05666 7.43331 5.78999 7.43331ZM18.7233 10.2333C18.1011 10.2333 17.59 10.0333 17.19 9.63331C16.79 9.23331 16.59 8.74442 16.59 8.16664C16.59 7.58886 16.79 7.09997 17.19 6.69997C17.59 6.29997 18.0789 6.09998 18.6567 6.09998C19.2344 6.09998 19.7233 6.29997 20.1233 6.69997C20.5233 7.09997 20.7233 7.58886 20.7233 8.16664C20.7233 8.74442 20.5233 9.23331 20.1233 9.63331C19.7233 10.0333 19.2567 10.2333 18.7233 10.2333ZM18.7233 7.43331C18.4567 7.43331 18.2567 7.49997 18.1233 7.63331C17.99 7.76664 17.9233 7.94442 17.9233 8.16664C17.9233 8.38886 17.99 8.58886 18.1233 8.76664C18.2567 8.94442 18.4344 9.03331 18.6567 9.03331C18.8789 9.03331 19.0789 8.94442 19.2567 8.76664C19.4344 8.58886 19.5233 8.38886 19.5233 8.16664C19.5233 7.94442 19.4344 7.76664 19.2567 7.63331C19.0789 7.49997 18.9011 7.43331 18.7233 7.43331Z" fill="white"/>
</g>
<defs>
<clipPath id="clip0_1_217">
<rect width="40.02" height="40" fill="white" transform="matrix(1 0 0 -1 0.97998 40.5)"/>
</clipPath>
</defs>
</svg>
